<?xml version="1.0" encoding="UTF-8"?>
<svg version="1.1" xmlns="http://www.w3.org/2000/svg" width="1024" height="1024">
<path d="M0 0 C337.92 0 675.84 0 1024 0 C1024 337.92 1024 675.84 1024 1024 C686.08 1024 348.16 1024 0 1024 C0 686.08 0 348.16 0 0 Z " fill="#1D273B" transform="translate(0,0)"/>
<path d="M0 0 C337.92 0 675.84 0 1024 0 C1024 337.92 1024 675.84 1024 1024 C686.08 1024 348.16 1024 0 1024 C0 686.08 0 348.16 0 0 Z M110 104 C109.50532227 104.46212891 109.01064453 104.92425781 108.50097656 105.40039062 C72.04645115 139.63399418 54.70885459 188.39620895 52.90268046 237.65409338 C52.47930464 253.39791587 52.58414499 269.15598499 52.60782599 284.90392256 C52.61397179 290.96127994 52.60588725 297.01860984 52.5983839 303.07596171 C52.5826906 316.2066117 52.58391378 329.33721755 52.59262064 342.46787161 C52.60020062 353.95699713 52.60212197 365.44610656 52.5985527 376.93523407 C52.59832355 377.70063518 52.59809439 378.46603628 52.59785829 379.25463136 C52.59692412 382.36246748 52.5959689 385.47030359 52.594979 388.57813969 C52.58582622 417.66138543 52.59408449 446.74460324 52.61026969 475.82784466 C52.62450955 501.6114817 52.62322501 527.39507428 52.60888672 553.17871094 C52.59279118 582.21858836 52.58646992 611.25844117 52.59572351 640.29832244 C52.59668552 643.39889128 52.59762405 646.49946014 52.5985527 649.60002899 C52.59878994 650.3633405 52.59902717 651.126652 52.59927159 651.91309416 C52.6026704 663.39186053 52.59871882 674.87060898 52.59111404 686.34937286 C52.58250351 699.41051432 52.58475043 712.47160517 52.60095628 725.53274038 C52.6089423 732.18690556 52.61199502 738.84100068 52.60200882 745.49517059 C52.59298341 751.60176737 52.59812222 757.70819207 52.61394148 763.81477353 C52.61725632 766.00815626 52.61567095 768.20155392 52.60831411 770.39492682 C52.54896787 789.57987356 54.21665628 808.60195034 58.3125 827.375 C58.52704834 828.3657251 58.74159668 829.3564502 58.96264648 830.37719727 C65.41423018 859.16422412 78.60538383 885.74174923 98 908 C98.83015625 908.96421875 99.6603125 909.9284375 100.515625 910.921875 C135.48203341 950.77334399 188.19462562 968.84092582 239.9013328 972.37742358 C259.85264348 973.61645511 279.88682035 973.27499484 299.86599076 973.24679029 C306.16108464 973.24013272 312.45617154 973.24517897 318.75126648 973.24867249 C329.6296388 973.25310593 340.50798512 973.25028421 351.38635445 973.24202538 C362.79188796 973.23336875 374.19741219 973.22850621 385.60294914 973.22869301 C386.31618083 973.22870065 387.02941252 973.2287083 387.76425729 973.22871618 C390.66030304 973.22875709 393.55634878 973.22882272 396.45239453 973.22892199 C423.54035381 973.22982521 450.62829903 973.21992583 477.71625344 973.20449232 C501.73442166 973.19085828 525.7525799 973.18463175 549.77075195 973.18530273 C551.31452636 973.18534315 552.85830077 973.18538351 554.40207518 973.18542381 C555.1653243 973.18544416 555.92857341 973.18546452 556.71495129 973.18548548 C560.55779601 973.18558629 564.40064073 973.18567687 568.24348545 973.18575573 C569.00177786 973.18577244 569.76007026 973.18578916 570.54134122 973.18580638 C590.67376126 973.18617215 610.80618005 973.18162677 630.93859905 973.17542917 C632.01375784 973.17509876 632.01375784 973.17509876 633.110637 973.17476168 C635.99227779 973.17387357 638.87391857 973.17298513 641.75555935 973.17207072 C651.74397354 973.16892194 661.73238676 973.16740292 671.72080142 973.16695923 C684.59114108 973.1663602 697.46147046 973.16221531 710.33180702 973.15252777 C716.52977955 973.1479314 722.72774206 973.14485628 728.9257164 973.14612198 C734.61073074 973.1472266 740.29572304 973.1436409 745.98073279 973.13647345 C748.02529497 973.13467819 750.06985944 973.13451191 752.11442167 973.13624074 C815.44963973 973.18382236 873.29703795 960.05312915 920 915 C940.6354338 894.16092705 954.88552706 867.0123198 963 839 C963.34224609 837.82606689 963.34224609 837.82606689 963.69140625 836.62841797 C967.80363991 822.10929583 969.39812242 807.46779873 970.69042969 792.46411133 C970.85908242 790.57687665 971.03455483 788.69000189 971.24445917 786.80690905 C971.87856497 781.02794787 972.14320758 775.34728744 972.12863445 769.53649998 C972.13038749 768.63483584 972.13214053 767.7331717 972.13394669 766.80418441 C972.1385813 763.79689526 972.13614773 760.789655 972.13371277 757.78236389 C972.13558205 755.59858185 972.13788322 753.41480014 972.14057809 751.23101896 C972.14668859 745.24009796 972.14656336 739.24919093 972.14538372 733.25826752 C972.14517951 726.79228827 972.1507006 720.32631347 972.15544128 713.8603363 C972.1639626 701.19258824 972.16650906 688.52484415 972.16705366 675.85709352 C972.16751378 665.55197503 972.16957515 655.24685804 972.17275429 644.94174004 C972.1736519 641.97172068 972.17454171 639.00170132 972.17542917 636.03168195 C972.17565021 635.29322703 972.17587126 634.5547721 972.17609901 633.79393975 C972.18225249 613.02431163 972.18619968 592.25468404 972.18575573 571.48505497 C972.18574015 570.70221437 972.18572457 569.91937377 972.18570852 569.11281073 C972.18562542 565.14540976 972.18552638 561.1780088 972.18542381 557.21060783 C972.18540387 556.42272966 972.18538392 555.63485148 972.18536337 554.82309821 C972.18532294 553.22981249 972.18528114 551.63652677 972.18523798 550.04324106 C972.1846261 525.28964505 972.19211603 500.53606278 972.20581055 475.7824707 C972.22120698 447.94138502 972.22977452 420.10030836 972.22884732 392.25921816 C972.2287727 389.28385476 972.22872399 386.30849137 972.22869301 383.33312798 C972.22868135 382.60057734 972.2286697 381.86802671 972.22865769 381.11327758 C972.22862705 369.37536187 972.23498605 357.63745817 972.24362527 345.89954602 C972.25214715 334.07538412 972.25305661 322.25123958 972.24651595 310.42707629 C972.24326769 304.03392995 972.24313212 297.64082663 972.2518692 291.24768448 C972.33938644 222.88344594 967.68059525 156.99096031 917.0625 105.6875 C889.11888553 78.08097572 853.21564 61.94204832 814.9375 54.75 C814.14980225 54.59901855 813.36210449 54.44803711 812.55053711 54.29248047 C795.2357851 51.2449192 777.78690557 50.70480996 760.25196838 50.73930359 C758.03608111 50.73627515 755.82019488 50.73238223 753.60431045 50.72771102 C747.57561018 50.71751116 741.5469699 50.71959222 735.51826489 50.72389162 C729.66465081 50.72611793 723.8110526 50.71892715 717.95744314 50.71213136 C704.52238628 50.69696036 691.08734839 50.69517925 677.65228475 50.69765439 C667.26879216 50.69949352 656.88530571 50.69771449 646.50181389 50.69342995 C645.00521048 50.69282752 643.50860708 50.69222632 642.01200367 50.69162634 C639.75619161 50.690719 637.50037955 50.68981032 635.24456749 50.68889399 C614.2930906 50.68047449 593.34161602 50.67612171 572.39013767 50.68030071 C571.60170174 50.68045709 570.81326581 50.68061346 570.00093788 50.68077458 C566.0056806 50.68158025 562.01042332 50.68242602 558.01516605 50.68328788 C556.82516133 50.68354451 556.82516133 50.68354451 555.6111161 50.68380633 C554.00679898 50.68415299 552.40248186 50.68450152 550.79816474 50.68485192 C525.85476835 50.69020486 500.91140736 50.68228672 475.96801758 50.66381836 C447.88144301 50.64304663 419.79489035 50.63238565 391.70830768 50.63639385 C388.70638113 50.63678913 385.70445456 50.63715069 382.702528 50.63749123 C381.96349224 50.63758196 381.22445648 50.63767269 380.4630257 50.63776617 C369.3638204 50.6389264 358.26463742 50.63232779 347.1654377 50.62167931 C334.52224799 50.60956117 321.87910702 50.6081436 309.2359165 50.62046947 C302.79774804 50.62632224 296.35967451 50.62755857 289.9215126 50.61546707 C223.65253336 50.49969207 160.33647069 56.24878612 110 104 Z " fill="#FEFEFE" transform="translate(0,0)"/>
<path d="M0 0 C2 2 2 2 2 5 C1.34 5 0.68 5 0 5 C0.33 8.3 0.66 11.6 1 15 C0.67 15 0.34 15 0 15 C0 17.31 0 19.62 0 22 C-0.66 22 -1.32 22 -2 22 C-2.33 26.95 -2.66 31.9 -3 37 C-3.66 37 -4.32 37 -5 37 C-5 39.64 -5 42.28 -5 45 C-5.66 45 -6.32 45 -7 45 C-7 47.31 -7 49.62 -7 52 C-7.66 52 -8.32 52 -9 52 C-9.11214844 52.68449219 -9.22429688 53.36898437 -9.33984375 54.07421875 C-11.73919439 64.70802721 -17.24760629 74.76883769 -22.1953125 84.41015625 C-23.60229653 87.16484528 -24.8435737 89.94190198 -26 92.8125 C-40.49551416 125.92725219 -79.24146898 150.12005318 -111.25 162.75 C-146.16014232 175.99624528 -182.72467417 183.49678525 -219.36035156 190.15283203 C-232.55742957 192.55467654 -245.7316579 195.0844235 -258.9072876 197.60083008 C-260.88503822 197.97807186 -262.86316228 198.35335428 -264.84130859 198.72851562 C-304.34616834 206.25527007 -343.81857274 215.27842988 -382 228 C-383.14662109 228.37560059 -383.14662109 228.37560059 -384.31640625 228.75878906 C-399.22965381 233.66640224 -413.6333627 239.68428933 -428 246 C-428.82693359 246.3623877 -429.65386719 246.72477539 -430.50585938 247.09814453 C-462.98000742 261.46171001 -496.44025256 283.16839579 -519 311 C-519.89958842 312.07564728 -520.79934383 313.1511549 -521.69921875 314.2265625 C-546.23903549 343.87350864 -561.45122783 378.56834144 -569.25 416.125 C-569.40114258 416.83857666 -569.55228516 417.55215332 -569.70800781 418.28735352 C-572.82372914 434.27916248 -573.36886577 450.44358896 -573.3125 466.6875 C-573.31233887 467.64313843 -573.31217773 468.59877686 -573.31201172 469.58337402 C-573.29483216 484.25778924 -572.5660585 498.52009845 -570 513 C-572.49222193 510.71082072 -574.13943869 508.33157708 -575.85546875 505.421875 C-576.65911865 504.06412964 -576.65911865 504.06412964 -577.47900391 502.67895508 C-578.32470947 501.22912231 -578.32470947 501.22912231 -579.1875 499.75 C-579.77192871 498.74928467 -580.35635742 497.74856934 -580.95849609 496.7175293 C-582.64588962 493.81561408 -584.32340596 490.90816296 -586 488 C-586.39944824 487.31824707 -586.79889648 486.63649414 -587.21044922 485.93408203 C-618.44534603 432.43272412 -630.01610236 363.10045323 -614.78466797 302.94580078 C-607.01725958 273.78539333 -593.86014076 246.59676647 -575 223 C-574.04504639 221.7934375 -574.04504639 221.7934375 -573.07080078 220.5625 C-560.05256561 204.3447469 -545.07745302 189.87701651 -528 178 C-527.36932617 177.5565625 -526.73865234 177.113125 -526.08886719 176.65625 C-521.79657364 173.65633189 -517.43178265 170.78920202 -513 168 C-512.36191406 167.59716797 -511.72382813 167.19433594 -511.06640625 166.77929688 C-428.94613569 115.47445457 -322.71363169 107.31411048 -228.57208252 98.86166382 C-135.57679093 91.87259926 -135.57679093 91.87259926 -51.89868164 54.40551758 C-50 53 -50 53 -46.9375 51.875 C-38.48526149 48.39253263 -31.66011914 41.07070637 -25.94921875 34.140625 C-24 32 -24 32 -21.07421875 29.640625 C-17.84528878 27.00990634 -15.47432596 23.91711426 -13.125 20.5 C-12.49198975 19.59773682 -12.49198975 19.59773682 -11.84619141 18.67724609 C-7.63726723 12.61139708 -3.77293289 6.34442906 0 0 Z " fill="#46A69B" transform="translate(800,136)"/>
<path d="M0 0 C0.99708218 3.13457433 0.95842989 5.21481038 0.22265625 8.40625 C0.03896484 9.23253906 -0.14472656 10.05882812 -0.33398438 10.91015625 C-0.53314453 11.76480469 -0.73230469 12.61945313 -0.9375 13.5 C-1.3252943 15.19708002 -1.70954088 16.89497552 -2.08984375 18.59375 C-2.26378662 19.34333984 -2.43772949 20.09292969 -2.61694336 20.86523438 C-3.11774435 23.29470971 -3.11774435 23.29470971 -3 27 C-3.66 27 -4.32 27 -5 27 C-5.25910156 28.29421875 -5.51820313 29.5884375 -5.78515625 30.921875 C-6.89778402 35.90100573 -8.52794668 40.52606621 -10.4375 45.25 C-10.7780542 46.09973389 -11.1186084 46.94946777 -11.46948242 47.82495117 C-14.96719357 56.31207861 -19.21033343 64.3629714 -23.58203125 72.42578125 C-25.05656389 75.15297944 -26.40744131 77.85628361 -27.578125 80.7265625 C-37.1009704 102.65003625 -59.44539604 122.88436743 -78.29980469 136.74853516 C-79.99636504 137.99732441 -81.67395975 139.26887103 -83.3515625 140.54296875 C-92.39074375 147.30538337 -102.02915532 152.73877891 -112 158 C-112.98540771 158.52956299 -112.98540771 158.52956299 -113.99072266 159.06982422 C-131.72416367 168.57101896 -150.73113239 175.34990905 -170 181 C-170.7847168 181.23783203 -171.56943359 181.47566406 -172.37792969 181.72070312 C-205.87876628 191.8316196 -241.13629189 196.48085887 -275.73046875 201.203125 C-326.09001783 208.0956162 -379.07083215 216.06263174 -425 239 C-425.75845215 239.36915527 -426.5169043 239.73831055 -427.29833984 240.11865234 C-462.53051907 257.35139406 -488.99298061 283.20181222 -507 318 C-507.31275879 318.5995752 -507.62551758 319.19915039 -507.94775391 319.81689453 C-525.8063086 354.55297399 -530.84149191 395.04183445 -531.31640625 433.5859375 C-531.33705026 435.02324925 -531.35804821 436.46055595 -531.37937927 437.89785767 C-531.43383316 441.62947426 -531.48357106 445.36113837 -531.53222656 449.09283447 C-531.5830121 452.92130621 -531.63839624 456.74971136 -531.69335938 460.578125 C-531.7999987 468.0520265 -531.90164125 475.52598444 -532 483 C-537.11583678 478.02803784 -540.44562316 472.12396302 -544 466 C-544.50370117 465.1347168 -544.50370117 465.1347168 -545.01757812 464.25195312 C-556.39499429 444.4583661 -563.81603522 422.53648971 -568.75 400.3125 C-568.94875732 399.42328857 -569.14751465 398.53407715 -569.35229492 397.61791992 C-572.5792852 382.36544596 -573.34773769 367.50157949 -573.31567383 351.95654297 C-573.31251866 348.76885573 -573.33604551 345.58210432 -573.36132812 342.39453125 C-573.40126914 329.3274365 -572.39828372 316.843175 -570 304 C-569.85963318 303.22988083 -569.71926636 302.45976166 -569.574646 301.66630554 C-565.92562969 281.80977303 -558.70326068 262.67572246 -549 245 C-548.38769531 243.83855469 -547.77539062 242.67710937 -547.14453125 241.48046875 C-539.35963478 227.17873111 -529.28116696 214.68064172 -518 203 C-517.08039807 202.0172368 -516.16113063 201.0341605 -515.2421875 200.05078125 C-475.79426623 158.51520064 -417.09651019 139.88197453 -362.5 129.25 C-361.76557678 129.10697449 -361.03115356 128.96394897 -360.2744751 128.81658936 C-341.74782898 125.23616704 -323.19256865 122.5549407 -304.4375 120.5 C-301.71176649 120.19722225 -298.98617302 119.89320634 -296.2605896 119.58908081 C-294.4036231 119.38230477 -292.54654494 119.17652923 -290.68936157 118.97171021 C-285.76410254 118.42720258 -280.84152866 117.86591892 -275.92138672 117.27685547 C-264.13239617 115.87097269 -252.34170467 114.62253016 -240.515625 113.5703125 C-239.17358748 113.45015206 -237.83155156 113.32997376 -236.48951721 113.20977783 C-231.05321944 112.72434964 -225.61678686 112.24102045 -220.17871094 111.77587891 C-160.47084837 106.65154105 -94.29275346 94.61922544 -47.25390625 54.6640625 C-45 53 -45 53 -42.69921875 52.23828125 C-38.41133827 50.27119281 -35.51624623 46.90741305 -32.25 43.5625 C-31.56550781 42.88123047 -30.88101563 42.19996094 -30.17578125 41.49804688 C-26.32472174 37.74727914 -26.32472174 37.74727914 -24 33 C-22.86976467 31.86976467 -21.73593911 30.74292966 -20.5859375 29.6328125 C-13.39810431 22.23253104 -7.84694044 13.69388089 -3.25 4.5 C-2 2 -2 2 0 0 Z " fill="#5C70A4" transform="translate(854,267)"/>
<path d="M0 0 C1.67675278 -0.00853686 1.67675278 -0.00853686 3.38737935 -0.01724619 C4.62577323 -0.01842606 5.86416711 -0.01960594 7.14008808 -0.02082157 C8.44767828 -0.02590939 9.75526847 -0.03099721 11.10248262 -0.03623921 C14.74435151 -0.05017252 18.38621039 -0.05773658 22.02809918 -0.0642122 C25.1488047 -0.07057553 28.26949371 -0.08064671 31.39018895 -0.09077286 C41.6735155 -0.1241253 51.9568521 -0.14562368 62.24021503 -0.16397271 C64.91721712 -0.16876629 67.59421879 -0.17374979 70.27122045 -0.17877793 C86.88796142 -0.20974799 103.50470584 -0.23643911 120.12146759 -0.25319672 C123.97185682 -0.25714635 127.82224598 -0.26114932 131.67263508 -0.2652216 C133.10816533 -0.26673414 133.10816533 -0.26673414 134.57269619 -0.26827724 C150.07788293 -0.28528625 165.58291014 -0.32639672 181.08801898 -0.37724458 C196.99982024 -0.42899772 212.91153942 -0.45813596 228.82342416 -0.4653936 C237.76020109 -0.47005882 246.69671677 -0.48484091 255.63341045 -0.5251379 C263.24411926 -0.55941371 270.85451972 -0.57338727 278.4653013 -0.56071376 C282.34886849 -0.55488097 286.23178337 -0.55879311 290.11525249 -0.5888834 C294.32580359 -0.62124184 298.53492327 -0.60711743 302.74555683 -0.58844852 C303.9727971 -0.60524345 305.20003738 -0.62203838 306.46446675 -0.63934225 C312.84623569 -0.56844655 316.8564535 -0.12564391 321.49126798 4.46228546 C323.89400734 7.63849159 325.00857816 10.25212799 325.03493977 14.23062801 C325.04447178 15.02535519 325.05400379 15.82008236 325.06382465 16.63889217 C325.06245754 17.91551723 325.06245754 17.91551723 325.06106281 19.2179327 C325.06534794 20.10333736 325.06963306 20.98874203 325.07404804 21.90097713 C325.07978586 23.77371015 325.08029564 25.64646545 325.07595539 27.51920223 C325.07280812 30.36578762 325.09621691 33.21132044 325.12160969 36.05777645 C325.1238842 37.8819939 325.12458547 39.70621412 325.12356281 41.5304327 C325.13277256 42.37341915 325.14198231 43.2164056 325.15147114 44.0849371 C325.10061862 50.6761136 324.24039146 56.65969781 319.38528156 61.5148077 C314.97260898 64.24646216 311.44135829 65.38938033 306.24512386 65.39707661 C304.59076193 65.40674995 304.59076193 65.40674995 302.90297854 65.4166187 C301.69666887 65.4135215 300.4903592 65.4104243 299.2474947 65.40723324 C297.31901646 65.41402991 297.31901646 65.41402991 295.35157907 65.42096388 C291.78486853 65.43319892 288.21825176 65.43293284 284.65152502 65.43057513 C280.80412093 65.4301671 276.95674695 65.44120481 273.10935688 65.45069027 C265.57248078 65.46730367 258.03563595 65.47279996 250.49874307 65.47391503 C244.37286847 65.47486528 238.24700419 65.47897443 232.12113285 65.48531628 C214.75480655 65.50292912 197.38850496 65.51215501 180.02216966 65.51065533 C178.61781337 65.51053546 178.61781337 65.51053546 177.18508625 65.51041317 C175.77901629 65.51029053 175.77901629 65.51029053 174.34454088 65.51016541 C159.14997469 65.50935235 143.95550759 65.52849481 128.76097007 65.5566899 C113.16094971 65.58540913 97.5609777 65.59923075 81.96093023 65.59750235 C73.2020047 65.59683815 64.44318308 65.60234379 55.68428135 65.62385845 C48.22738842 65.64205755 40.77064649 65.64642804 33.31374098 65.63283961 C29.5092827 65.62630365 25.70511423 65.6262151 21.9006834 65.6435461 C17.77591418 65.66214316 13.65181772 65.64973894 9.52703571 65.63428402 C7.72426338 65.64971471 7.72426338 65.64971471 5.8850714 65.66545713 C-0.71679367 65.61066066 -4.88939308 65.12133801 -10.23971844 61.1398077 C-13.43123504 57.62913944 -14.34932735 54.47396207 -14.46432781 49.79532528 C-14.48684612 48.92043957 -14.50936443 48.04555386 -14.53256512 47.14415646 C-14.60386405 43.13848556 -14.66110211 39.13299305 -14.69967937 35.12686825 C-14.7262621 33.01921491 -14.76716043 30.91169106 -14.82272625 28.80460262 C-14.90213727 25.75565011 -14.93503454 22.70917612 -14.95846844 19.65933895 C-14.99146038 18.72572033 -15.02445232 17.79210171 -15.05844402 16.83019161 C-15.03894961 10.39714306 -13.4274396 7.21967881 -8.94101238 2.61763668 C-5.92897399 0.00122955 -3.90893974 0.0115698 0 0 Z " fill="#89A3BF" transform="translate(491.2397184371948,584.8601922988892)"/>
<path d="M0 0 C0.75222708 -0.00367669 1.50445415 -0.00735338 2.27947599 -0.01114148 C4.81354683 -0.02220144 7.3475767 -0.02602608 9.88166809 -0.02983093 C11.69324372 -0.0360939 13.50481807 -0.04274055 15.31639099 -0.04974365 C20.24839898 -0.06717032 25.18039726 -0.07771023 30.11242843 -0.08594918 C33.19299918 -0.09109645 36.2735669 -0.09717234 39.35413551 -0.10346031 C48.99008315 -0.12251815 58.62602309 -0.13674729 68.26198596 -0.14507228 C79.38927546 -0.15484396 90.51636599 -0.18115923 101.64358538 -0.22157317 C110.24069329 -0.25172723 118.83774415 -0.26654054 127.43490392 -0.26985329 C132.57104358 -0.27220484 137.70697083 -0.28117876 142.84305382 -0.30631447 C147.67675463 -0.32958732 152.51010306 -0.33383155 157.34384537 -0.32355309 C159.11634429 -0.3230574 160.8888605 -0.32938741 162.66130638 -0.34310913 C165.0851725 -0.36082124 167.50777315 -0.35372603 169.93164062 -0.34057617 C170.62971193 -0.35154542 171.32778324 -0.36251466 172.04700822 -0.37381631 C177.42809125 -0.30354963 180.42887748 1.21504995 184.78327942 4.14717102 C188.45670594 8.36734445 188.2215947 12.66145124 188.18171692 17.99092102 C188.18602219 19.26098999 188.18602219 19.26098999 188.19041443 20.55671692 C188.19245045 22.34192069 188.18695291 24.127147 188.1743927 25.91230774 C188.15833204 28.6382404 188.1742566 31.36269049 188.19343567 34.08857727 C188.19145315 35.82686178 188.18760931 37.56514537 188.18171692 39.30342102 C188.18778961 40.11500671 188.1938623 40.92659241 188.20011902 41.76277161 C188.1428396 46.3922176 187.7364753 49.36750458 184.78327942 53.14717102 C179.77960838 57.65047495 176.04867096 58.29606465 169.51550293 58.29434204 C168.76988297 58.29801873 168.02426301 58.30169542 167.2560485 58.30548352 C164.75038873 58.31652198 162.24477042 58.32036445 159.73908997 58.32417297 C157.94544849 58.33043743 156.15180831 58.33708422 154.35816956 58.34408569 C149.48000526 58.3614953 144.60185076 58.37204707 139.72366309 58.38029122 C136.67676419 58.38544084 133.62986833 58.39151654 130.58297157 58.39780235 C121.05221484 58.41685322 111.52146586 58.43108531 101.99069375 58.43941432 C90.98452447 58.44919127 79.97855607 58.47552318 68.97245759 58.51591522 C60.46791336 58.54605711 51.96342679 58.56088131 43.45883018 58.56419533 C38.37806878 58.56654775 33.29752201 58.57553327 28.21681786 58.60065651 C23.43727691 58.62390894 18.65809234 58.62818187 13.87850952 58.61789513 C12.12494027 58.61739899 10.37135364 58.62374237 8.61783791 58.63745117 C6.22213301 58.65513174 3.82771247 58.64808379 1.43200684 58.63491821 C0.73948671 58.64588746 0.04696658 58.6568567 -0.66653901 58.66815835 C-6.46912384 58.59126734 -9.75806591 56.26670091 -14.02922058 52.58467102 C-18.1584817 47.58609178 -16.6073375 37.91238575 -16.67668152 31.69770813 C-16.70324725 29.88103309 -16.74412765 28.06450769 -16.79972839 26.24848938 C-17.31483207 9.20817725 -17.31483207 9.20817725 -12.81047058 3.97138977 C-8.62009801 0.25161992 -5.45806501 -0.00141882 0 0 Z " fill="#89A4BF" transform="translate(224.2167205810547,771.8528289794922)"/>
<path d="M0 0 C3.40041354 2.64502896 4.70744037 5.2244143 6.52539062 9.0847168 C8.84831409 12.78760351 9.95795693 14.1940962 14.20898438 15.40493774 C18.58469277 15.70985921 22.84069926 15.67308929 27.21875 15.51953125 C28.82861706 15.5061993 30.43854103 15.49861792 32.04846191 15.49650574 C36.27558221 15.47955071 40.49916199 15.40221115 44.72515869 15.30664062 C51.48687409 15.15861694 58.24847313 15.0795795 65.01164246 15.04437828 C67.36555666 15.01995349 69.7159725 14.95562226 72.06896973 14.8874054 C83.8831361 14.67869828 83.8831361 14.67869828 88.28417969 18.28979492 C90.22688788 20.34771986 90.81733134 21.45313596 91.671875 24.21875 C91.34014497 32.46461072 91.34014497 32.46461072 88.4375 36.0625 C84.36101891 39.75074479 82.2420852 39.56026201 76.79248047 39.55102539 C76.07042419 39.55117142 75.34836792 39.55131744 74.60443115 39.5514679 C72.21281959 39.55077007 69.82128549 39.54298375 67.4296875 39.53515625 C65.77344811 39.53329161 64.11720816 39.53186792 62.46096802 39.53086853 C58.09782392 39.52704699 53.734713 39.51721978 49.37158203 39.50616455 C44.92090301 39.49594264 40.47021863 39.49136924 36.01953125 39.48632812 C27.28383892 39.4755972 18.54817359 39.45852512 9.8125 39.4375 C9.35435913 40.61227905 9.35435913 40.61227905 8.88696289 41.81079102 C5.15768591 50.92764879 -2.25084704 56.43031683 -11.0625 60.3125 C-19.70727113 63.14853164 -27.35982808 61.66764757 -35.4609375 57.91015625 C-40.07978068 55.41545155 -44.15536888 52.99595652 -46.18375301 47.96797848 C-47.49101582 44.78580324 -48.67958925 42.81547054 -51.1875 40.4375 C-57.04716918 38.90179979 -62.84186749 39.14473433 -68.86352539 39.25805664 C-70.68879701 39.25592538 -72.51406805 39.24935316 -74.33930969 39.23867798 C-79.29038476 39.22189383 -84.23928245 39.26611758 -89.19001698 39.32042623 C-94.37135292 39.36600993 -99.55251186 39.35267471 -104.73399353 39.34483337 C-114.54904536 39.33838828 -124.3632279 39.38022983 -134.17806762 39.44155258 C-151.75884425 39.54960975 -169.33987951 39.57141442 -186.92094988 39.58209509 C-193.09158095 39.58769905 -199.26173746 39.61297654 -205.4322263 39.65482819 C-209.26848903 39.6786462 -213.1047314 39.69073568 -216.94105339 39.70029068 C-218.72086379 39.70747037 -220.50066187 39.71988785 -222.28039551 39.73790932 C-224.70887457 39.76195581 -227.13674086 39.76762901 -229.56532288 39.76893616 C-230.27038233 39.78060493 -230.97544179 39.7922737 -231.70186669 39.80429608 C-236.04645788 39.7824488 -238.71361601 39.05823712 -242.1875 36.4375 C-245.31619855 32.76937066 -245.76528188 29.3334563 -245.609375 24.65625 C-244.87420338 20.78979187 -243.047522 19.1025205 -240.1875 16.4375 C-236.56487798 14.00169414 -232.94465778 14.17385756 -228.73027039 14.22631836 C-227.97633446 14.22758162 -227.22239854 14.22884487 -226.44561607 14.23014641 C-223.91763672 14.23656043 -221.38996407 14.25710071 -218.86206055 14.27734375 C-217.05019485 14.28441594 -215.23832493 14.29046903 -213.42645264 14.295578 C-209.52336185 14.30780546 -205.62034341 14.32537933 -201.71729088 14.34649658 C-195.54432665 14.37795309 -189.3714765 14.38583351 -183.19844055 14.38818359 C-182.15665057 14.3886972 -181.1148606 14.38921082 -180.04150122 14.38973999 C-177.9111678 14.39078146 -175.78083435 14.39178572 -173.65050089 14.3927536 C-159.2789206 14.40065211 -144.90773261 14.42590696 -130.53637695 14.50927734 C-120.84227024 14.56533219 -111.14879237 14.58600547 -101.45453483 14.56607723 C-96.32465338 14.55699068 -91.19624485 14.56622245 -86.06659508 14.61886597 C-81.24048493 14.66817213 -76.41657774 14.67100629 -71.59034729 14.63839149 C-69.82103311 14.63472092 -68.05158714 14.64812587 -66.28255653 14.68001366 C-56.85010758 15.15348404 -56.85010758 15.15348404 -48.69962502 11.26971436 C-46.81960616 8.68557119 -46.81960616 8.68557119 -45.52935505 5.96749878 C-42.44811442 0.15797782 -35.68626969 -4.14581046 -29.4765625 -6.125 C-18.43954406 -8.23446428 -9.26086321 -6.12068546 0 0 Z " fill="#89A3BF" transform="translate(723.1875,687.5625)"/>
<path d="M0 0 C1.29144456 -0.00623996 2.58288912 -0.01247993 3.91346836 -0.01890898 C7.48717826 -0.03557532 11.06045976 -0.02736852 14.63417101 -0.0149641 C18.49246118 -0.00590477 22.35067826 -0.0198877 26.20895386 -0.03088379 C33.76298109 -0.04866421 41.3168493 -0.04483118 48.87088275 -0.03323323 C55.01054358 -0.02419729 61.15015986 -0.02297559 67.28982544 -0.02732849 C68.1638701 -0.02794142 69.03791476 -0.02855436 69.93844563 -0.02918586 C71.71408678 -0.03046477 73.48972793 -0.03176162 75.26536906 -0.03307623 C91.91302727 -0.04448063 108.56059735 -0.03137052 125.20824111 -0.00987476 C139.49067817 0.0079961 153.7729852 0.00489195 168.05541992 -0.0135498 C184.64376816 -0.03495899 201.23203916 -0.043382 217.82039928 -0.03110075 C219.58948452 -0.02982656 221.35856977 -0.02856908 223.12765503 -0.02732849 C223.99806397 -0.02671139 224.86847292 -0.02609429 225.76525789 -0.02545848 C231.89708248 -0.02200573 238.02885805 -0.02783232 244.16067505 -0.0372467 C251.63400479 -0.0484686 259.10716649 -0.04542267 266.580477 -0.02412373 C270.39303857 -0.01361581 274.20532003 -0.00948687 278.01787949 -0.02272034 C282.15132337 -0.03685054 286.28406084 -0.01997173 290.41748047 0 C291.6218554 -0.00892289 292.82623034 -0.01784577 294.06710148 -0.02703905 C300.67643003 0.03504982 304.8467919 0.53387867 310.20874023 4.50793457 C313.00325089 7.35970979 313.6593274 9.41755484 313.70874023 13.38293457 C313.5987698 16.93340858 313.22288639 19.18816063 311.02124023 22.00793457 C305.48749748 26.92681702 300.4798874 26.79356139 293.3996582 26.75085449 C292.39820518 26.75271602 291.39675217 26.75457754 290.36495209 26.75649548 C286.97687074 26.76015545 283.5889916 26.74924936 280.20092773 26.73840332 C277.73678597 26.73775499 275.27264389 26.73791096 272.8085022 26.73880005 C266.00169459 26.73815578 259.19499165 26.72395821 252.38821411 26.70618057 C248.08791438 26.69505604 243.7876127 26.68725613 239.48730469 26.68014526 C227.06795294 26.65913915 214.64862259 26.63413163 202.22930908 26.59645081 C201.39924103 26.59393844 200.56917298 26.59142607 199.71395135 26.58883756 C198.45627879 26.58502705 198.45627879 26.58502705 197.1731987 26.58113956 C180.00176892 26.52915346 162.83043915 26.49634744 145.65893555 26.48156738 C126.38233241 26.46484557 107.10586191 26.42865683 87.82933617 26.37102604 C77.19713597 26.33967398 66.56504956 26.31641682 55.93280029 26.3132019 C46.78532701 26.31029432 37.63809244 26.29002375 28.49071324 26.24771094 C23.76670777 26.22638442 19.04304294 26.21337139 14.3189888 26.22172928 C9.95964537 26.22921516 5.60101159 26.21368766 1.24179864 26.17986262 C-0.34442101 26.1716326 -1.93071125 26.17189765 -3.51692414 26.18134058 C-5.67403611 26.19292946 -7.82878991 26.17391644 -9.98571777 26.14717102 C-11.18736824 26.14440564 -12.38901871 26.14164026 -13.62708282 26.13879108 C-17.70075415 25.32660449 -19.18295251 23.66287797 -21.79125977 20.50793457 C-23.5198775 17.05069911 -23.13970515 13.29481274 -22.79125977 9.50793457 C-21.24875728 5.42483977 -18.87089791 3.44881562 -15.06514168 1.35534763 C-10.24332835 -0.44160918 -5.08015114 -0.03763746 0 0 Z " fill="#89A3BF" transform="translate(500.791259765625,784.4920654296875)"/>
<path d="M0 0 C0.99 0.495 0.99 0.495 2 1 C0.66109291 3.67781419 -1.29842273 4.33594215 -3.84765625 5.73828125 C-7.18858808 7.69675853 -10.29817659 9.96510579 -13.453125 12.20703125 C-15.81693849 13.87112695 -18.20903893 15.4754635 -20.625 17.0625 C-26.49843832 20.96079977 -32.08210654 24.92842237 -37 30 C-38.20306855 31.04774279 -39.41218711 32.08855233 -40.625 33.125 C-51.69315972 42.776271 -61.09415097 53.54167456 -69.375 65.65625 C-71.33699025 68.48604363 -73.41997927 71.20763924 -75.54296875 73.91796875 C-79.28889031 79.27071993 -82.1304427 85.14879332 -85 91 C-86.90861913 94.8917937 -88.81507039 98.72881388 -91.0625 102.4375 C-93.37052491 106.42623473 -94.66333482 110.60785308 -96 115 C-96.59544989 116.88570245 -97.19184593 118.77110633 -97.7890625 120.65625 C-98.71921022 123.61364274 -99.6473325 126.57161166 -100.5703125 129.53125 C-100.869375 130.48 -101.1684375 131.42875 -101.4765625 132.40625 C-101.8799585 133.69499023 -101.8799585 133.69499023 -102.29150391 135.00976562 C-103 137 -103 137 -104 138 C-104.35840222 140.32961443 -104.68848712 142.66365343 -105 145 C-105.58314261 148.16563129 -106.29241083 151.29790064 -107 154.4375 C-108.50769668 161.21522888 -108.50769668 161.21522888 -109 168.125 C-109 170.67655641 -109.3899136 172.55965439 -110 175 C-109.67 175.66 -109.34 176.32 -109 177 C-109.32936912 178.66745461 -109.66362374 180.33394481 -110 182 C-110.0917909 184.41011735 -110.13066398 186.82251128 -110.1328125 189.234375 C-110.13376923 189.91300598 -110.13472595 190.59163696 -110.13571167 191.29083252 C-110.13638898 192.71618747 -110.13456614 194.14154559 -110.13037109 195.56689453 C-110.12498301 197.75690528 -110.13034818 199.94671405 -110.13671875 202.13671875 C-110.13605854 203.52343795 -110.13477857 204.91015703 -110.1328125 206.296875 C-110.13168457 207.55854492 -110.13055664 208.82021484 -110.12939453 210.12011719 C-110.32916031 212.89572486 -110.32916031 212.89572486 -109 214 C-109.020625 215.19625 -109.04125 216.3925 -109.0625 217.625 C-109.12071898 221.73671569 -108.14112875 225.03961198 -107 229 C-106.82571706 230.78912332 -106.68223961 232.58140048 -106.5625 234.375 C-106.22061825 238.9127032 -105.25836785 242.69730242 -103.6875 246.94921875 C-103 249 -103 249 -102.5 252.5625 C-101.99335424 256.04568957 -101.03771455 258.86741078 -99.71875 262.10546875 C-98.97833946 264.05709437 -98.48485108 265.97039084 -98 268 C-97.21145197 270.8150756 -96.41867679 273.62887659 -95.62109375 276.44140625 C-95 279 -95 279 -95 282 C-94.34 282 -93.68 282 -93 282 C-92.690625 283.134375 -92.38125 284.26875 -92.0625 285.4375 C-91.37075469 288.78775099 -91.37075469 288.78775099 -90 290 C-89.95936168 291.66617115 -89.957279 293.33388095 -90 295 C-89.34 295.33 -88.68 295.66 -88 296 C-87.140625 297.6796875 -87.140625 297.6796875 -86.25 299.875 C-84.69429579 303.55158935 -82.92273214 306.97442755 -80.9375 310.4375 C-78.13546843 315.45987557 -76.37739208 320.43001975 -75 326 C-74.34 326 -73.68 326 -73 326 C-72.67 327.65 -72.34 329.3 -72 331 C-71.34 331 -70.68 331 -70 331 C-70 331.66 -70 332.32 -70 333 C-69.01 333 -68.02 333 -67 333 C-67.07105957 331.75089844 -67.14211914 330.50179688 -67.21533203 329.21484375 C-67.47946921 324.5039684 -67.72453696 319.79224876 -67.96435547 315.08007812 C-68.06997187 313.05506826 -68.18050586 311.0303078 -68.29638672 309.00585938 C-68.99797415 296.68232357 -68.99443634 285.19619346 -67 273 C-66.79002168 271.33465469 -66.58894769 269.66812615 -66.40234375 268 C-66.32306641 267.32066406 -66.24378906 266.64132812 -66.16210938 265.94140625 C-66.08798828 265.30074219 -66.01386719 264.66007812 -65.9375 264 C-65.62779862 261.33298481 -65.31478658 258.66642746 -65 256 C-64.9189502 255.28400635 -64.83790039 254.5680127 -64.75439453 253.83032227 C-64.26232776 249.62857079 -63.36066099 245.99694166 -62 242 C-61.62468554 239.67305036 -61.28082798 237.34023315 -61 235 C-60.34 235 -59.68 235 -59 235 C-58.98582031 234.42894531 -58.97164062 233.85789062 -58.95703125 233.26953125 C-58.56813745 226.65833664 -56.77456911 221.24977922 -54.27734375 215.140625 C-52.65326685 211.1474818 -51.32093422 207.10184836 -50 203 C-49.34 203 -48.68 203 -48 203 C-47.67 200.69 -47.34 198.38 -47 196 C-46.34 196 -45.68 196 -45 196 C-44.5978125 194.1746875 -44.5978125 194.1746875 -44.1875 192.3125 C-43.29740694 188.74585951 -42.03134834 186.08764948 -40 183 C-38.9849911 181.00757511 -37.98126556 179.00925805 -37 177 C-36.34 177 -35.68 177 -35 177 C-34.938125 176.29875 -34.87625 175.5975 -34.8125 174.875 C-33.73774584 171.07202373 -31.57788151 168.95513247 -29 166 C-27.72147713 163.78412652 -27.72147713 163.78412652 -27 162 C-26.34 162 -25.68 162 -25 162 C-25 161.01 -25 160.02 -25 159 C-24.34 159 -23.68 159 -23 159 C-24.55667015 163.45004618 -26.94762025 167.19882503 -29.5 171.125 C-45.18997174 195.87614555 -55.29678584 222.45602154 -61.25 251.125 C-61.40114258 251.83857666 -61.55228516 252.55215332 -61.70800781 253.28735352 C-64.82372914 269.27916248 -65.36886577 285.44358896 -65.3125 301.6875 C-65.31233887 302.64313843 -65.31217773 303.59877686 -65.31201172 304.58337402 C-65.29483216 319.25778924 -64.5660585 333.52009845 -62 348 C-64.49222193 345.71082072 -66.13943869 343.33157708 -67.85546875 340.421875 C-68.65911865 339.06412964 -68.65911865 339.06412964 -69.47900391 337.67895508 C-70.32470947 336.22912231 -70.32470947 336.22912231 -71.1875 334.75 C-71.77192871 333.74928467 -72.35635742 332.74856934 -72.95849609 331.7175293 C-74.64588962 328.81561408 -76.32340596 325.90816296 -78 323 C-78.39944824 322.31824707 -78.79889648 321.63649414 -79.21044922 320.93408203 C-110.44534603 267.43272412 -122.01610236 198.10045323 -106.78466797 137.94580078 C-99.01725958 108.78539333 -85.86014076 81.59676647 -67 58 C-66.36336426 57.195625 -65.72672852 56.39125 -65.07080078 55.5625 C-48.02446455 34.32665131 -27.84139873 17.57123712 -5 3 C-4.07703125 2.39414062 -3.1540625 1.78828125 -2.203125 1.1640625 C-1.47609375 0.77992188 -0.7490625 0.39578125 0 0 Z " fill="#5FD5DD" transform="translate(292,301)"/>
<path d="M0 0 C0.66 0 1.32 0 2 0 C0.44332985 4.45004618 -1.94762025 8.19882503 -4.5 12.125 C-20.18997174 36.87614555 -30.29678584 63.45602154 -36.25 92.125 C-36.47671387 93.19536499 -36.47671387 93.19536499 -36.70800781 94.28735352 C-39.82372914 110.27916248 -40.36886577 126.44358896 -40.3125 142.6875 C-40.31233887 143.64313843 -40.31217773 144.59877686 -40.31201172 145.58337402 C-40.29483216 160.25778924 -39.5660585 174.52009845 -37 189 C-39.49222193 186.71082072 -41.13943869 184.33157708 -42.85546875 181.421875 C-43.39220215 180.51477783 -43.92893555 179.60768066 -44.48193359 178.6730957 C-45.04477051 177.70847412 -45.60760742 176.74385254 -46.1875 175.75 C-47.05109131 174.27503052 -47.05109131 174.27503052 -47.93212891 172.77026367 C-51.30350294 166.98341484 -54.65533194 161.18536486 -57.875 155.3125 C-58.21426514 154.70825195 -58.55353027 154.10400391 -58.90307617 153.48144531 C-59.8046875 151.80078125 -59.8046875 151.80078125 -61 149 C-60.67 148.01 -60.34 147.02 -60 146 C-54.77343584 152.5332052 -52.12652889 158.99329653 -50 167 C-49.34 167 -48.68 167 -48 167 C-47.505 169.475 -47.505 169.475 -47 172 C-46.34 172 -45.68 172 -45 172 C-45 172.66 -45 173.32 -45 174 C-44.01 174 -43.02 174 -42 174 C-42.07105957 172.75089844 -42.14211914 171.50179687 -42.21533203 170.21484375 C-42.47946921 165.5039684 -42.72453696 160.79224876 -42.96435547 156.08007812 C-43.06997187 154.05506826 -43.18050586 152.0303078 -43.29638672 150.00585938 C-43.99797415 137.68232357 -43.99443634 126.19619346 -42 114 C-41.79002168 112.33465469 -41.58894769 110.66812615 -41.40234375 109 C-41.32306641 108.32066406 -41.24378906 107.64132812 -41.16210938 106.94140625 C-41.08798828 106.30074219 -41.01386719 105.66007813 -40.9375 105 C-40.62779862 102.33298481 -40.31478658 99.66642746 -40 97 C-39.9189502 96.28400635 -39.83790039 95.5680127 -39.75439453 94.83032227 C-39.26232776 90.62857079 -38.36066099 86.99694166 -37 83 C-36.62468554 80.67305036 -36.28082798 78.34023315 -36 76 C-35.34 76 -34.68 76 -34 76 C-33.97873047 75.14341797 -33.97873047 75.14341797 -33.95703125 74.26953125 C-33.56813745 67.65833664 -31.77456911 62.24977922 -29.27734375 56.140625 C-27.65326685 52.1474818 -26.32093422 48.10184836 -25 44 C-24.34 44 -23.68 44 -23 44 C-22.67 41.69 -22.34 39.38 -22 37 C-21.34 37 -20.68 37 -20 37 C-19.731875 35.783125 -19.46375 34.56625 -19.1875 33.3125 C-18.29740694 29.74585951 -17.03134834 27.08764948 -15 24 C-13.9849911 22.00757511 -12.98126556 20.00925805 -12 18 C-11.34 18 -10.68 18 -10 18 C-9.9071875 16.948125 -9.9071875 16.948125 -9.8125 15.875 C-8.73774584 12.07202373 -6.57788151 9.95513247 -4 7 C-2.72147713 4.78412652 -2.72147713 4.78412652 -2 3 C-1.34 3 -0.68 3 0 3 C0 2.01 0 1.02 0 0 Z " fill="#5DD7D6" transform="translate(267,460)"/>
<path d="M0 0 C0.33 0 0.66 0 1 0 C1.02505615 1.03406982 1.0501123 2.06813965 1.07592773 3.13354492 C1.1703343 6.98213387 1.27047291 10.83055629 1.37231445 14.67895508 C1.41553784 16.34232681 1.45722146 18.00573932 1.49731445 19.66918945 C1.55532332 22.06474068 1.61892829 24.46008908 1.68359375 26.85546875 C1.70030624 27.5952446 1.71701874 28.33502045 1.73423767 29.09721375 C1.84105475 32.84794676 2.20283906 36.33840922 3 40 C3 42.33333333 3 44.66666667 3 47 C3.29868656 49.00546689 3.63371323 51.00577205 4 53 C4.17343796 54.37416231 4.3397905 55.74923269 4.5 57.125 C4.85910309 59.90804894 5.3219278 62.31301242 6 65 C6.30057216 66.68593656 6.59144687 68.37361773 6.875 70.0625 C8.28105463 77.91122287 10.45790942 85.45076129 13 93 C13.33 94.02480469 13.66 95.04960938 14 96.10546875 C14.33 97.12253906 14.66 98.13960937 15 99.1875 C15.33 100.21230469 15.66 101.23710938 16 102.29296875 C16.94143789 105.16350059 16.94143789 105.16350059 19 108 C19.556875 109.8253125 19.556875 109.8253125 20.125 111.6875 C21.60051544 116.24751004 23.56175756 120.46615123 25.6875 124.75 C25.98994629 125.36834717 26.29239258 125.98669434 26.60400391 126.6237793 C29.98496056 133.325288 34.02129145 139.64330359 38 146 C37.98428955 144.63742065 37.98428955 144.63742065 37.96826172 143.24731445 C37.79633484 125.93601925 37.86302777 108.76967642 39.28857422 91.50512695 C39.85481551 84.64714754 40.12411943 77.88173288 40 71 C40.66 71 41.32 71 42 71 C41.95875 69.7625 41.9175 68.525 41.875 67.25 C41.85628808 61.38381252 42.91081967 55.74737122 44 50 C44.33 50 44.66 50 45 50 C45.23546516 56.71075709 44.54064782 63.03172436 43.53515625 69.66796875 C42.01892728 80.90842085 41.82312512 92.26155529 41.68359375 103.5859375 C41.66294974 105.02324925 41.64195179 106.46055595 41.62062073 107.89785767 C41.56616684 111.62947426 41.51642894 115.36113837 41.46777344 119.09283447 C41.4169879 122.92130621 41.36160376 126.74971136 41.30664062 130.578125 C41.2000013 138.0520265 41.09835875 145.52598444 41 153 C35.88416322 148.02803784 32.55437684 142.12396302 29 136 C28.66419922 135.42314453 28.32839844 134.84628906 27.98242188 134.25195312 C16.60500571 114.4583661 9.18396478 92.53648971 4.25 70.3125 C4.05124268 69.42328857 3.85248535 68.53407715 3.64770508 67.61791992 C0.30699876 51.82796339 -0.26740443 36.57557903 -0.125 20.5 C-0.11494001 18.50130662 -0.10581955 16.50260828 -0.09765625 14.50390625 C-0.07590525 9.66914545 -0.0415456 4.83462955 0 0 Z " fill="#36737C" transform="translate(281,597)"/>
<path d="M0 0 C-1.93467942 0.83986084 -3.87285129 1.67168027 -5.8125 2.5 C-6.89144531 2.9640625 -7.97039062 3.428125 -9.08203125 3.90625 C-12 5 -12 5 -15 5 C-15 5.66 -15 6.32 -15 7 C-15.80159546 7.24327026 -15.80159546 7.24327026 -16.61938477 7.49145508 C-22.66279807 9.40536587 -28.25518754 11.89313928 -33.9375 14.6875 C-35.6115837 15.50738154 -37.28728799 16.32396501 -38.96484375 17.13671875 C-39.6930835 17.49467529 -40.42132324 17.85263184 -41.17163086 18.22143555 C-43 19 -43 19 -45 19 C-45 19.66 -45 20.32 -45 21 C-45.55945313 21.25652344 -46.11890625 21.51304687 -46.6953125 21.77734375 C-62.02244606 29.09592682 -74.94242963 39.13530746 -87.37890625 50.6015625 C-90.34241167 53.31332454 -93.37517307 55.93283875 -96.44140625 58.52734375 C-98.23855081 60.11534787 -98.23855081 60.11534787 -100 63 C-100.66 63 -101.32 63 -102 63 C-102.23460937 63.53496094 -102.46921875 64.06992187 -102.7109375 64.62109375 C-104.37175523 67.68605739 -106.47335899 70.33503926 -108.625 73.0625 C-109.52575422 74.22056568 -110.42547803 75.3794335 -111.32421875 76.5390625 C-111.7732959 77.11817383 -112.22237305 77.69728516 -112.68505859 78.29394531 C-114.63223376 80.82028398 -116.54290449 83.37153577 -118.4375 85.9375 C-119.05496094 86.77152344 -119.67242187 87.60554688 -120.30859375 88.46484375 C-122.14566492 91.21832918 -123.57219587 94.01493749 -125 97 C-125.99896577 99.02134479 -126.99896388 101.04217971 -128 103.0625 C-128.495 104.06410156 -128.99 105.06570313 -129.5 106.09765625 C-131 109 -131 109 -132.58984375 111.5546875 C-134.0299988 114.05202008 -134.81191382 116.28747567 -135.5625 119.0625 C-136.43672994 122.26800977 -137.45802483 125.0584811 -139 128 C-139.33 128.86625 -139.66 129.7325 -140 130.625 C-141 133 -141 133 -143 135 C-139.90148854 107.04216674 -118.30150056 78.24170352 -99.41210938 58.47949219 C-98.4756544 57.4983516 -97.54457769 56.51204753 -96.61914062 55.52050781 C-83.20201798 41.16664671 -21.56432645 -10.78216322 0 0 Z " fill="#66ACCB" transform="translate(434,413)"/>
<path d="M0 0 C0.99 0.495 0.99 0.495 2 1 C0.66109291 3.67781419 -1.29842273 4.33594215 -3.84765625 5.73828125 C-7.18858808 7.69675853 -10.29817659 9.96510579 -13.453125 12.20703125 C-15.81693849 13.87112695 -18.20903893 15.4754635 -20.625 17.0625 C-26.49843832 20.96079977 -32.08210654 24.92842237 -37 30 C-38.20306855 31.04774279 -39.41218711 32.08855233 -40.625 33.125 C-51.69315972 42.776271 -61.09415097 53.54167456 -69.375 65.65625 C-71.33699025 68.48604363 -73.41997927 71.20763924 -75.54296875 73.91796875 C-79.28889031 79.27071993 -82.1304427 85.14879332 -85 91 C-86.95802633 94.99253806 -88.93431255 98.94055246 -91.171875 102.78515625 C-92.89935168 105.8230052 -94.02124 108.65590334 -95 112 C-95.66 111.01 -96.32 110.02 -97 109 C-96.37597656 106.80200195 -96.37597656 106.80200195 -95.140625 104.23828125 C-94.68929199 103.29186768 -94.23795898 102.3454541 -93.77294922 101.37036133 C-93.27037598 100.36126709 -92.76780273 99.35217285 -92.25 98.3125 C-91.74355957 97.27826904 -91.23711914 96.24403809 -90.71533203 95.1784668 C-84.09230959 81.87566494 -76.28327737 69.61472393 -67 58 C-66.36336426 57.195625 -65.72672852 56.39125 -65.07080078 55.5625 C-48.02446455 34.32665131 -27.84139873 17.57123712 -5 3 C-4.07703125 2.39414062 -3.1540625 1.78828125 -2.203125 1.1640625 C-1.47609375 0.77992188 -0.7490625 0.39578125 0 0 Z " fill="#5CDCCF" transform="translate(292,301)"/>
<path d="M0 0 C-2.37238479 2.37238479 -3.46394148 2.46254781 -6.71484375 3.04296875 C-7.69702881 3.22569336 -8.67921387 3.40841797 -9.69116211 3.59667969 C-10.76245361 3.79165039 -11.83374512 3.98662109 -12.9375 4.1875 C-42.22434335 9.81917811 -71.12520632 17.87664569 -98 31 C-98.76860352 31.37205566 -99.53720703 31.74411133 -100.32910156 32.12744141 C-114.69431606 39.15791196 -127.8151865 47.62874013 -140 58 C-140.66 57.67 -141.32 57.34 -142 57 C-139.17589976 54.07130346 -136.27847819 51.41572077 -133 49 C-132.34 49 -131.68 49 -131 49 C-131 48.34 -131 47.68 -131 47 C-126.61538462 44 -126.61538462 44 -124 44 C-124 43.34 -124 42.68 -124 42 C-122.58671871 41.18162558 -121.16921654 40.37053781 -119.75 39.5625 C-118.56664062 38.88380859 -118.56664062 38.88380859 -117.359375 38.19140625 C-115.21166532 37.10688398 -113.34794939 36.46851284 -111 36 C-111 35.34 -111 34.68 -111 34 C-109.68 34 -108.36 34 -107 34 C-107 33.34 -107 32.68 -107 32 C-101.66068812 29.13965435 -96.92056432 27.26869235 -91 26 C-91 25.34 -91 24.68 -91 24 C-90.43079834 23.80365967 -89.86159668 23.60731934 -89.27514648 23.4050293 C-86.66167031 22.50184463 -84.04958428 21.59470188 -81.4375 20.6875 C-80.54224609 20.37876953 -79.64699219 20.07003906 -78.72460938 19.75195312 C-74.82599974 18.39529409 -70.96741139 17.03078072 -67.19140625 15.359375 C-64.27932487 14.11897803 -61.57589075 13.2740207 -58.5 12.5625 C-54.09984441 11.51381427 -49.73579221 10.38944956 -45.375 9.1875 C-36.97527153 6.9236814 -28.49879729 5.01067231 -20.01123047 3.10620117 C-18.93373535 2.86232666 -17.85624023 2.61845215 -16.74609375 2.3671875 C-15.78372803 2.15175293 -14.8213623 1.93631836 -13.82983398 1.71435547 C-10.91516002 1.02282789 -10.91516002 1.02282789 -7.82055664 -0.10888672 C-4.72138945 -1.0880229 -3.07772198 -0.90521235 0 0 Z " fill="#9E76D1" transform="translate(527,475)"/>
<path d="M0 0 C0.99 0.495 0.99 0.495 2 1 C-4.7061758 5.95780595 -11.50646336 10.0404356 -19 13.6875 C-19.92039062 14.14705078 -20.84078125 14.60660156 -21.7890625 15.08007812 C-30.62958126 19.44430605 -39.62444358 22.97529166 -49 26 C-50.45589099 26.48779853 -51.91161956 26.97608209 -53.3671875 27.46484375 C-64.45828884 31.11865644 -75.5337044 33.8248087 -87 36 C-88.50134687 36.29143603 -90.00264987 36.58309817 -91.50390625 36.875 C-95.33142029 37.61054723 -99.16030546 38.33018662 -103 39 C-104.86398437 39.34998047 -104.86398437 39.34998047 -106.765625 39.70703125 C-110 40 -110 40 -113 38 C-112.44054687 37.92072266 -111.88109375 37.84144531 -111.3046875 37.75976562 C-74.27935588 32.3726394 -30.0301959 23.4870383 0 0 Z " fill="#347175" transform="translate(750,189)"/>
<path d="M0 0 C0.33 0 0.66 0 1 0 C1.01458252 0.90427734 1.02916504 1.80855469 1.04418945 2.74023438 C1.37757967 21.33469064 2.1274508 39.58650022 5 58 C2.50777807 55.71082072 0.86056131 53.33157708 -0.85546875 50.421875 C-1.39220215 49.51477783 -1.92893555 48.60768066 -2.48193359 47.6730957 C-3.32618896 46.22616333 -3.32618896 46.22616333 -4.1875 44.75 C-4.76322754 43.76668701 -5.33895508 42.78337402 -5.93212891 41.77026367 C-9.30350294 35.98341484 -12.65533194 30.18536486 -15.875 24.3125 C-16.21426514 23.70825195 -16.55353027 23.10400391 -16.90307617 22.48144531 C-17.8046875 20.80078125 -17.8046875 20.80078125 -19 18 C-18.505 16.515 -18.505 16.515 -18 15 C-12.77343584 21.5332052 -10.12652889 27.99329653 -8 36 C-7.34 36 -6.68 36 -6 36 C-5.67 37.65 -5.34 39.3 -5 41 C-4.34 41 -3.68 41 -3 41 C-3 41.66 -3 42.32 -3 43 C-2.01 43 -1.02 43 0 43 C-0.12568359 41.23462891 -0.12568359 41.23462891 -0.25390625 39.43359375 C-1.10136698 26.21591825 -0.79310462 13.21481351 0 0 Z " fill="#54B3BD" transform="translate(225,591)"/>
<path d="M0 0 C1.26403771 3.57933871 0.71824148 5.80786426 -0.3984375 9.38671875 C-0.71296875 10.40701172 -1.0275 11.42730469 -1.3515625 12.47851562 C-1.68929687 13.53748047 -2.02703125 14.59644531 -2.375 15.6875 C-2.705 16.75806641 -3.035 17.82863281 -3.375 18.93164062 C-5.84332517 26.84332517 -5.84332517 26.84332517 -7 28 C-7.35840222 30.32961443 -7.68848712 32.66365343 -8 35 C-8.58314261 38.16563129 -9.29241083 41.29790064 -10 44.4375 C-11.24055324 50.02924743 -12.1370007 55.24597051 -12 61 C-12.99 61 -13.98 61 -15 61 C-14.66657296 45.20768293 -11.44644998 11.44644998 0 0 Z " fill="#5ED9D9" transform="translate(195,411)"/>
<path d="M0 0 C0.99 0.33 1.98 0.66 3 1 C2.50371094 1.53367187 2.00742187 2.06734375 1.49609375 2.6171875 C-3.51822664 8.1167647 -7.85941027 13.8233756 -12 20 C-12.77150391 21.11181641 -12.77150391 21.11181641 -13.55859375 22.24609375 C-18.92377161 30.06392434 -23.39308591 38.29606547 -27.12890625 47.0078125 C-27.89674792 48.76386296 -28.75451162 50.48000357 -29.625 52.1875 C-31.51099553 56.04521813 -32.70587558 60.01958528 -33.9375 64.125 C-34.96168119 66.89631382 -36.1038692 68.75911814 -38 71 C-35.39743253 47.51706361 -18.49386791 22.97339752 -4 5 C-3.24332031 4.05382812 -2.48664063 3.10765625 -1.70703125 2.1328125 C-1.14371094 1.42898438 -0.58039063 0.72515625 0 0 Z " fill="#62AEC6" transform="translate(329,477)"/>
<path d="M0 0 C-18.19209521 12.12806348 -41.06314542 18.05311011 -61.875 24 C-62.88845993 24.29364944 -62.88845993 24.29364944 -63.9223938 24.5932312 C-71.91528733 26.89503733 -79.65684822 28.65227812 -88 29 C-84.69453564 26.79635709 -82.19520269 26.17820281 -78.33984375 25.265625 C-76.98310115 24.93861562 -75.62641379 24.61137696 -74.26977539 24.28393555 C-73.56160675 24.11517914 -72.85343811 23.94642273 -72.12380981 23.77255249 C-59.51626359 20.75920798 -47.20891707 17.37970676 -35 13 C-32.70647697 12.23621698 -30.41045045 11.48092063 -28.11181641 10.73266602 C-23.02297384 8.96716121 -18.1986625 6.63454242 -13.42578125 4.15234375 C-12.79889404 3.82911133 -12.17200684 3.50587891 -11.52612305 3.17285156 C-10.27405006 2.52390247 -9.02662623 1.86589096 -7.78442383 1.19824219 C-3.33252506 -1.11084169 -3.33252506 -1.11084169 0 0 Z " fill="#6856A7" transform="translate(739,426)"/>
<path d="M0 0 C2.23582528 4.47165056 3.00282979 6.03303295 2 11 C1.9082091 13.41011735 1.86933602 15.82251128 1.8671875 18.234375 C1.86623077 18.91300598 1.86527405 19.59163696 1.86428833 20.29083252 C1.86361102 21.71618747 1.86543386 23.14154559 1.86962891 24.56689453 C1.87501699 26.75690528 1.86965182 28.94671405 1.86328125 31.13671875 C1.86394146 32.52343795 1.86522143 33.91015703 1.8671875 35.296875 C1.86831543 36.55854492 1.86944336 37.82021484 1.87060547 39.12011719 C1.67083969 41.89572486 1.67083969 41.89572486 3 43 C3 45.66666667 3 48.33333333 3 51 C3.33 51.33 3.66 51.66 4 52 C4.04063832 53.66617115 4.042721 55.33388095 4 57 C3.01 57.495 3.01 57.495 2 58 C1.68067566 56.39717783 1.37005486 54.7926221 1.0625 53.1875 C0.88847656 52.29417969 0.71445313 51.40085937 0.53515625 50.48046875 C-0.93313551 40.93121355 -1.15590969 31.46147609 -1.125 21.8125 C-1.13080078 19.98428711 -1.13080078 19.98428711 -1.13671875 18.11914062 C-1.13006177 11.98472949 -0.95135776 6.06301813 0 0 Z " fill="#60DEE4" transform="translate(180,472)"/>
<path d="M0 0 C0.33 0 0.66 0 1 0 C1.02505615 1.03406982 1.0501123 2.06813965 1.07592773 3.13354492 C1.1703343 6.98213387 1.27047291 10.83055629 1.37231445 14.67895508 C1.41553784 16.34232681 1.45722146 18.00573932 1.49731445 19.66918945 C1.55532332 22.06474068 1.61892829 24.46008908 1.68359375 26.85546875 C1.70030624 27.5952446 1.71701874 28.33502045 1.73423767 29.09721375 C1.84105475 32.84794676 2.20283906 36.33840922 3 40 C3 42.33333333 3 44.66666667 3 47 C3.29868656 49.00546689 3.63371323 51.00577205 4 53 C4.17343796 54.37416231 4.3397905 55.74923269 4.5 57.125 C4.85949756 59.91110609 5.3202312 62.3109146 6 65 C6.52282678 67.77751726 7.01057972 70.56017218 7.5 73.34375 C7.93851307 75.92622705 7.93851307 75.92622705 8.625 78.09375 C9.06915291 80.3515273 8.69745214 81.83014891 8 84 C4.83523336 73.10806202 2.57373693 62.23102731 1 51 C0.73654785 49.20550415 0.73654785 49.20550415 0.46777344 47.37475586 C-0.13076542 42.51729505 -0.12571108 37.70066461 -0.09765625 32.8125 C-0.0962413 31.86938965 -0.09482635 30.9262793 -0.09336853 29.95458984 C-0.0878124 26.96969303 -0.07526823 23.98487379 -0.0625 21 C-0.05747932 18.96484484 -0.05291741 16.92968849 -0.04882812 14.89453125 C-0.03785737 9.92965803 -0.02062339 4.96484213 0 0 Z " fill="#47989E" transform="translate(281,597)"/>
<path d="M0 0 C0.33 0 0.66 0 1 0 C1.18894367 5.38489462 0.85567944 10.39097323 0.05859375 15.72265625 C-1.166934 24.41657104 -1.63906215 33.11133659 -2.0625 41.875 C-2.14529165 43.49700832 -2.22846655 45.11899712 -2.31201172 46.7409668 C-2.97732295 59.82289346 -3.53962418 72.90923216 -4 86 C-4.33 86 -4.66 86 -5 86 C-6.0758186 70.02218022 -5.80262331 54.49530304 -4.47265625 38.5390625 C-3.99717907 32.67973385 -3.88611782 26.87572513 -4 21 C-3.34 21 -2.68 21 -2 21 C-2.04125 19.7625 -2.0825 18.525 -2.125 17.25 C-2.14371192 11.38381252 -1.08918033 5.74737122 0 0 Z " fill="#45949A" transform="translate(325,647)"/>
<path d="M0 0 C0.33 0 0.66 0 1 0 C0.73628238 8.70268154 -0.2153834 17.02747606 -1.9375 25.5625 C-2.10733398 26.40651367 -2.27716797 27.25052734 -2.45214844 28.12011719 C-3.37570216 32.52678778 -4.46620979 36.75628448 -6 41 C-7.06818156 37.79545532 -6.94508975 36.83832539 -6.22265625 33.65625 C-6.03896484 32.82222656 -5.85527344 31.98820312 -5.66601562 31.12890625 C-5.36727539 29.82759766 -5.36727539 29.82759766 -5.0625 28.5 C-4.67572409 26.78184693 -4.29149962 25.06311698 -3.91015625 23.34375 C-3.64924194 22.20196289 -3.64924194 22.20196289 -3.38305664 21.03710938 C-2.90759974 18.85408054 -2.90759974 18.85408054 -3 16 C-5.32525707 18.93572279 -7.09008583 21.92854017 -8.8125 25.25 C-11.46683885 30.20609635 -14.47051946 34.63195493 -18 39 C-18 35.09854114 -16.64000954 33.62616834 -14.5 30.375 C-11.1340843 25.1116691 -8.2712642 19.72092248 -5.625 14.0625 C-5.29177734 13.35335449 -4.95855469 12.64420898 -4.61523438 11.91357422 C-2.81632549 8.00639584 -1.27555316 4.11655792 0 0 Z " fill="#293D75" transform="translate(857,252)"/>
<path d="M0 0 C0 4.02498546 -1.99700534 6.09977268 -4.25 9.25 C-14.29500227 23.85892324 -22.03228299 39.68014487 -27.6953125 56.45703125 C-29 60 -29 60 -31 62 C-31 60.02 -31 58.04 -31 56 C-30.34 56 -29.68 56 -29 56 C-28.814375 54.845 -28.62875 53.69 -28.4375 52.5 C-25.83717658 40.78932362 -19.47096693 29.58121077 -14 19 C-13.34 19 -12.68 19 -12 19 C-11.76410156 18.31421875 -11.52820313 17.6284375 -11.28515625 16.921875 C-9.73387084 13.39494039 -7.65975861 10.37450263 -5.4375 7.25 C-5.02564453 6.66089844 -4.61378906 6.07179688 -4.18945312 5.46484375 C-1.18071308 1.18071308 -1.18071308 1.18071308 0 0 Z " fill="#65A9C3" transform="translate(364,554)"/>
<path d="M0 0 C0.66 0.33 1.32 0.66 2 1 C0.66109291 3.67781419 -1.29842273 4.33594215 -3.84765625 5.73828125 C-7.18858808 7.69675853 -10.29817659 9.96510579 -13.453125 12.20703125 C-15.81693849 13.87112695 -18.20903893 15.4754635 -20.625 17.0625 C-26.04967184 20.65971147 -31.47305103 24.29252852 -36 29 C-36.66 28.34 -37.32 27.68 -38 27 C-27.46600671 18.23720912 -16.54401141 10.38024793 -5 3 C-4.04351562 2.37222656 -3.08703125 1.74445313 -2.1015625 1.09765625 C-1.40804687 0.73542969 -0.71453125 0.37320312 0 0 Z " fill="#52CDB8" transform="translate(292,301)"/>
<path d="M0 0 C0.66 0.33 1.32 0.66 2 1 C-0.96757641 3.05076419 -3.97818951 5.03013698 -7 7 C-8.0209375 7.67675781 -9.041875 8.35351562 -10.09375 9.05078125 C-23.11477444 17.41619125 -37.99223481 24.14266709 -53 28 C-53 27.34 -53 26.68 -53 26 C-52.43829102 25.77973145 -51.87658203 25.55946289 -51.29785156 25.33251953 C-34.23806649 18.60203637 -17.00703832 11.63898734 -1.8984375 1.08203125 C-1.27195312 0.72496094 -0.64546875 0.36789062 0 0 Z " fill="#3E4684" transform="translate(793,332)"/>
<path d="M0 0 C-2.39546863 2.39546863 -3.56670232 2.4842249 -6.85546875 3.078125 C-7.8602124 3.26673096 -8.86495605 3.45533691 -9.90014648 3.6496582 C-11.52738647 3.94682739 -11.52738647 3.94682739 -13.1875 4.25 C-23.21510105 6.15484295 -33.06329239 8.44658724 -42.9128418 11.12011719 C-43.81687744 11.36536133 -44.72091309 11.61060547 -45.65234375 11.86328125 C-46.44632568 12.08282471 -47.24030762 12.30236816 -48.05834961 12.52856445 C-50 13 -50 13 -52 13 C-52 12.34 -52 11.68 -52 11 C-41.41246302 8.02989887 -30.74288871 5.51404956 -20.01416016 3.10693359 C-18.39646729 2.74075928 -18.39646729 2.74075928 -16.74609375 2.3671875 C-15.30254517 2.04403564 -15.30254517 2.04403564 -13.82983398 1.71435547 C-10.91516002 1.02282789 -10.91516002 1.02282789 -7.82055664 -0.10888672 C-4.72138945 -1.0880229 -3.07772198 -0.90521235 0 0 Z " fill="#9B6FCF" transform="translate(527,475)"/>
<path d="M0 0 C0.33 0 0.66 0 1 0 C0.56305595 7.48554149 0.02482381 14.94307335 -0.73535156 22.40283203 C-1.977047 34.58840034 -2.58657611 46.76030017 -3 59 C-3.33 59 -3.66 59 -4 59 C-4.81176712 46.19140572 -5.53251075 33.7886044 -3.35449219 21.08349609 C-2.94208748 18.65962436 -2.56784539 16.23109383 -2.1953125 13.80078125 C-1.48602052 9.19670133 -0.74962143 4.59767808 0 0 Z " fill="#60D9DE" transform="translate(228,555)"/>
<path d="M0 0 C0.66 0.33 1.32 0.66 2 1 C1.58975772 4.4186857 1.15631326 7.56036896 0 10.8125 C-1.16784273 14.53499872 -1.46990737 18.04832709 -1.75390625 21.92578125 C-2 24 -2 24 -3 25 C-3.23595215 27.1410473 -3.41421886 29.28860036 -3.5625 31.4375 C-3.64628906 32.61183594 -3.73007812 33.78617188 -3.81640625 34.99609375 C-3.91822832 36.6620761 -4 38.33090895 -4 40 C-4.66 40 -5.32 40 -6 40 C-6.81440196 26.13254441 -3.91098347 13.23039903 0 0 Z " fill="#4F9EAA" transform="translate(288,556)"/>
<path d="M0 0 C-1.93467942 0.83986084 -3.87285129 1.67168027 -5.8125 2.5 C-6.89144531 2.9640625 -7.97039062 3.428125 -9.08203125 3.90625 C-12 5 -12 5 -15 5 C-15 5.66 -15 6.32 -15 7 C-16.175625 7.350625 -17.35125 7.70125 -18.5625 8.0625 C-23.87142293 9.79550828 -28.80589491 12.21350742 -33.76977539 14.75024414 C-37.34853203 16.50956258 -39.20862359 17.23466615 -43 16 C-33.47814948 11.34463849 -23.95281622 6.82530653 -14.0625 3 C-12.93739014 2.56482056 -12.93739014 2.56482056 -11.78955078 2.12084961 C-2.67689681 -1.33844841 -2.67689681 -1.33844841 0 0 Z " fill="#6491BF" transform="translate(434,413)"/>
<path d="M0 0 C0.66 0.33 1.32 0.66 2 1 C-1.5846519 9.35205696 -1.5846519 9.35205696 -3.5625 12.4375 C-5.38876756 15.69302044 -6.27483496 19.00772819 -7.25390625 22.59765625 C-7.96877491 24.89945848 -8.8837257 26.87056108 -10 29 C-10.33 29.86625 -10.66 30.7325 -11 31.625 C-12 34 -12 34 -14 36 C-12.59346259 23.19396752 -5.88370982 11.29741915 0 0 Z " fill="#5AA8BB" transform="translate(305,512)"/>
<path d="M0 0 C1.32 0.33 2.64 0.66 4 1 C3.49251221 1.31114746 2.98502441 1.62229492 2.4621582 1.94287109 C-7.26825635 7.93301673 -16.68653251 13.98535396 -25.53125 21.234375 C-28 23 -28 23 -31 23 C-28.17589976 20.07130346 -25.27847819 17.41572077 -22 15 C-21.34 15 -20.68 15 -20 15 C-20 14.34 -20 13.68 -20 13 C-15.61538462 10 -15.61538462 10 -13 10 C-13 9.34 -13 8.68 -13 8 C-11.58671871 7.18162558 -10.16921654 6.37053781 -8.75 5.5625 C-7.96109375 5.11003906 -7.1721875 4.65757812 -6.359375 4.19140625 C-4.21166532 3.10688398 -2.34794939 2.46851284 0 2 C0 1.34 0 0.68 0 0 Z " fill="#9782D2" transform="translate(416,509)"/>
<path d="M0 0 C0 0.66 0 1.32 0 2 C-0.66515625 2.25007813 -1.3303125 2.50015625 -2.015625 2.7578125 C-5.69107709 4.28764727 -9.20325856 6.07077355 -12.75 7.875 C-24.82104622 13.94627695 -24.82104622 13.94627695 -30 16 C-30.66 15.67 -31.32 15.34 -32 15 C-24.74539518 10.69642087 -17.44880004 6.59316615 -9.8125 3 C-9.17755615 2.69763428 -8.5426123 2.39526855 -7.88842773 2.08374023 C-5.06404565 0.78014991 -3.15048917 0 0 0 Z " fill="#4EC5AE" transform="translate(328,284)"/>
<path d="M0 0 C5.22656416 6.5332052 7.87347111 12.99329653 10 21 C10.66 21 11.32 21 12 21 C12.33 22.65 12.66 24.3 13 26 C13.66 26 14.32 26 15 26 C15.66 28.31 16.32 30.62 17 33 C13.75194439 29.95252729 11.80760482 26.37307831 9.6875 22.5 C9.29449707 21.7881958 8.90149414 21.0763916 8.49658203 20.34301758 C7.7038192 18.9062361 6.91278271 17.46850063 6.12353516 16.02978516 C5.11654092 14.21054351 4.08152594 12.40687834 3.04296875 10.60546875 C2.49253906 9.64253906 1.94210938 8.67960938 1.375 7.6875 C0.88773438 6.84574219 0.40046875 6.00398437 -0.1015625 5.13671875 C-1 3 -1 3 0 0 Z " fill="#5AC8CF" transform="translate(207,606)"/>
<path d="M0 0 C-3.45191709 2.30127806 -7.07129856 4.04571834 -10.8125 5.8125 C-11.56136475 6.16634766 -12.31022949 6.52019531 -13.08178711 6.88476562 C-19.9107606 10.0562631 -26.85099615 12.64343455 -34 15 C-34 14.01 -34 13.02 -34 12 C-33.41734375 11.84144531 -32.8346875 11.68289063 -32.234375 11.51953125 C-22.55255302 8.76416996 -13.4042544 5.14715265 -4.83984375 -0.1796875 C-3 -1 -3 -1 0 0 Z " fill="#59509A" transform="translate(739,426)"/>
<path d="M0 0 C0.33 0 0.66 0 1 0 C0.67 4.62 0.34 9.24 0 14 C-0.66 13.67 -1.32 13.34 -2 13 C-2.62648438 14.07121094 -3.25296875 15.14242187 -3.8984375 16.24609375 C-4.72368624 17.6433899 -5.54922196 19.04051659 -6.375 20.4375 C-6.7875 21.14455078 -7.2 21.85160156 -7.625 22.58007812 C-8.02460937 23.25361328 -8.42421875 23.92714844 -8.8359375 24.62109375 C-9.20251465 25.2442749 -9.5690918 25.86745605 -9.94677734 26.50952148 C-11 28 -11 28 -13 29 C-11.4130584 24.69141243 -9.27841106 20.75697079 -7.0625 16.75 C-4.08071228 11.27825893 -1.69142444 6.02569959 0 0 Z " fill="#295269" transform="translate(802,124)"/>
<path d="M0 0 C0.66 0 1.32 0 2 0 C0.34400058 4.78087969 -2.24184211 8.81868649 -4.9375 13.0625 C-5.38029297 13.76955078 -5.82308594 14.47660156 -6.27929688 15.20507812 C-8.40034821 18.5715754 -10.53619918 21.869428 -13 25 C-14 22 -14 22 -13.0625 19.8125 C-12.5365625 18.9153125 -12.5365625 18.9153125 -12 18 C-11.34 18 -10.68 18 -10 18 C-9.938125 17.29875 -9.87625 16.5975 -9.8125 15.875 C-8.73774584 12.07202373 -6.57788151 9.95513247 -4 7 C-2.72147713 4.78412652 -2.72147713 4.78412652 -2 3 C-1.34 3 -0.68 3 0 3 C0 2.01 0 1.02 0 0 Z " fill="#58D2C9" transform="translate(267,460)"/>
<path d="M0 0 C-0.33 0.99 -0.66 1.98 -1 3 C-1.79921875 3.06058594 -2.5984375 3.12117187 -3.421875 3.18359375 C-10.95066739 3.75797345 -18.47626372 4.36285477 -26 5 C-25.67 4.34 -25.34 3.68 -25 3 C-23.0222168 2.49755859 -23.0222168 2.49755859 -20.44921875 2.1484375 C-19.52302734 2.01953125 -18.59683594 1.890625 -17.64257812 1.7578125 C-16.17981445 1.56832031 -16.17981445 1.56832031 -14.6875 1.375 C-13.24213867 1.17390625 -13.24213867 1.17390625 -11.76757812 0.96875 C-7.78593834 0.42793129 -4.02770202 0 0 0 Z " fill="#37837B" transform="translate(635,228)"/>
<path d="M0 0 C0.33 0 0.66 0 1 0 C1.06058594 0.78246094 1.12117187 1.56492187 1.18359375 2.37109375 C1.26738281 3.38300781 1.35117188 4.39492188 1.4375 5.4375 C1.51871094 6.44683594 1.59992188 7.45617187 1.68359375 8.49609375 C1.73211468 10.93640779 1.73211468 10.93640779 3 12 C3 14.66666667 3 17.33333333 3 20 C3.33 20.33 3.66 20.66 4 21 C4.04063832 22.66617115 4.042721 24.33388095 4 26 C3.34 26.33 2.68 26.66 2 27 C-0.14982548 17.9400212 -0.20871753 9.24154826 0 0 Z " fill="#63E4EA" transform="translate(180,503)"/>
<path d="M0 0 C0 0.66 0 1.32 0 2 C-0.99580078 2.09087891 -0.99580078 2.09087891 -2.01171875 2.18359375 C-7.34872068 2.66615754 -7.34872068 2.66615754 -12.625 3.5625 C-17.75305793 4.50714225 -22.36272674 4.61298471 -27 2 C-23.25024882 1.66382774 -19.50016199 1.33155554 -15.75 1 C-14.68652344 0.90460938 -13.62304688 0.80921875 -12.52734375 0.7109375 C-11.50253906 0.62070313 -10.47773437 0.53046875 -9.421875 0.4375 C-8.00793457 0.31181641 -8.00793457 0.31181641 -6.56542969 0.18359375 C-4.3816825 0.02731493 -2.18933206 0 0 0 Z " fill="#3A8B80" transform="translate(605,232)"/>
<path d="M0 0 C-2.89827739 2.89827739 -6.28534282 2.93907844 -10.1875 3.5625 C-10.93064453 3.68818359 -11.67378906 3.81386719 -12.43945312 3.94335938 C-13.91583057 4.19050056 -15.39356033 4.4297046 -16.87255859 4.66064453 C-18.87483519 4.98003453 -20.86953496 5.34593013 -22.86328125 5.71484375 C-26 6 -26 6 -29 4 C-25.10529437 3.32663096 -21.20907067 2.66248416 -17.3125 2 C-16.20970703 1.80921875 -15.10691406 1.6184375 -13.97070312 1.421875 C-12.90400391 1.24140625 -11.83730469 1.0609375 -10.73828125 0.875 C-9.75899658 0.70742187 -8.77971191 0.53984375 -7.77075195 0.3671875 C-5.14088643 0.01867065 -2.64876878 -0.06764613 0 0 Z " fill="#38857E" transform="translate(666,223)"/>
<path d="M0 0 C1.74177862 3.23473172 2.85733741 6.51298169 4 10 C4.34160156 11.00160156 4.68320312 12.00320313 5.03515625 13.03515625 C5.54369141 14.53369141 5.54369141 14.53369141 6.0625 16.0625 C6.40410156 17.06410156 6.74570312 18.06570313 7.09765625 19.09765625 C7.91474036 21.72576662 8.51819873 24.29297224 9 27 C6.09558341 25.54779171 6.03909737 23.7639855 5.01953125 20.72265625 C4.66052734 19.65208984 4.30152344 18.58152344 3.93164062 17.47851562 C3.56232422 16.35123047 3.19300781 15.22394531 2.8125 14.0625 C2.43158203 12.93908203 2.05066406 11.81566406 1.65820312 10.65820312 C1.30306641 9.58634766 0.94792969 8.51449219 0.58203125 7.41015625 C0.25436768 6.42152588 -0.0732959 5.43289551 -0.41088867 4.41430664 C-1 2 -1 2 0 0 Z " fill="#3F8C90" transform="translate(290,680)"/>
<path d="M0 0 C0.66666667 1.33333333 1.33333333 2.66666667 2 4 C2.37125 4.639375 2.7425 5.27875 3.125 5.9375 C4.17440531 8.41109822 4.14780359 10.33953538 4 13 C4.66 13.33 5.32 13.66 6 14 C6.88671875 15.77734375 6.88671875 15.77734375 7.6875 17.9375 C7.95949219 18.64777344 8.23148438 19.35804688 8.51171875 20.08984375 C9 22 9 22 8 24 C0.12040026 8.92930923 0.12040026 8.92930923 -1 3 C-0.67 2.01 -0.34 1.02 0 0 Z " fill="#5DCFD7" transform="translate(198,583)"/>
<path d="M0 0 C0 0.99 0 1.98 0 3 C-2.06800878 4.79365098 -4.10170615 6.40240189 -6.3125 8 C-11.42674198 11.68450199 -11.42674198 11.68450199 -16 16 C-16.66 15.34 -17.32 14.68 -18 14 C-15.56411032 12.03965683 -13.12601224 10.08207961 -10.6875 8.125 C-9.99720703 7.56941406 -9.30691406 7.01382812 -8.59570312 6.44140625 C-7.59506836 5.63896484 -7.59506836 5.63896484 -6.57421875 4.8203125 C-5.96151123 4.32805176 -5.34880371 3.83579102 -4.7175293 3.32861328 C-3.19528235 2.15106276 -1.60131554 1.06754369 0 0 Z " fill="#55D5C1" transform="translate(272,314)"/>
<path d="M0 0 C0.33 0.66 0.66 1.32 1 2 C-2.45150916 3.86708601 -5.91221165 5.71642907 -9.375 7.5625 C-10.35984375 8.09552734 -11.3446875 8.62855469 -12.359375 9.17773438 C-13.30039062 9.67724609 -14.24140625 10.17675781 -15.2109375 10.69140625 C-16.08024902 11.15748291 -16.94956055 11.62355957 -17.84521484 12.10375977 C-18.55629395 12.39951904 -19.26737305 12.69527832 -20 13 C-20.66 12.67 -21.32 12.34 -22 12 C-20.35 11.34 -18.7 10.68 -17 10 C-17 9.34 -17 8.68 -17 8 C-16.01 8 -15.02 8 -14 8 C-14 7.34 -14 6.68 -14 6 C-13.32453125 5.73445313 -12.6490625 5.46890625 -11.953125 5.1953125 C-11.06109375 4.84210938 -10.1690625 4.48890625 -9.25 4.125 C-8.36828125 3.77695312 -7.4865625 3.42890625 -6.578125 3.0703125 C-4.3259752 2.1353291 -2.16350541 1.12219206 0 0 Z " fill="#50CFB6" transform="translate(366,382)"/>
<path d="M0 0 C-3.01794215 1.29849566 -6.03983991 2.58752945 -9.0625 3.875 C-9.91005859 4.23980469 -10.75761719 4.60460937 -11.63085938 4.98046875 C-16.37162513 6.99392139 -21.01120776 8.71387988 -26 10 C-26 9.34 -26 8.68 -26 8 C-22.42430624 6.46073792 -18.83840192 4.94687156 -15.25 3.4375 C-14.23421875 2.99986328 -13.2184375 2.56222656 -12.171875 2.11132812 C-11.1921875 1.70205078 -10.2125 1.29277344 -9.203125 0.87109375 C-8.30239258 0.48880615 -7.40166016 0.10651855 -6.47363281 -0.28735352 C-3.81908675 -1.05212059 -2.55699416 -0.94191316 0 0 Z " fill="#464A8C" transform="translate(766,350)"/>
<path d="M0 0 C-1.32 0.33 -2.64 0.66 -4 1 C-4 1.66 -4 2.32 -4 3 C-9.33333333 5.66666667 -14.66666667 8.33333333 -20 11 C-18.49630865 6.48892596 -15.14872733 5.46829837 -11.125 3.25 C-10.39152344 2.82589844 -9.65804688 2.40179688 -8.90234375 1.96484375 C-8.19464844 1.56910156 -7.48695313 1.17335938 -6.7578125 0.765625 C-6.1095752 0.40243164 -5.46133789 0.03923828 -4.79345703 -0.33496094 C-3 -1 -3 -1 0 0 Z " fill="#669FC5" transform="translate(393,431)"/>
<path d="M0 0 C0.33 0 0.66 0 1 0 C0.3622098 7.52592433 -1.19889833 14.67098882 -3 22 C-3.33 22 -3.66 22 -4 22 C-4.54249536 13.99819339 -2.60838688 7.53404602 0 0 Z " fill="#50A1AB" transform="translate(330,624)"/>
<path d="M0 0 C0.66 0.66 1.32 1.32 2 2 C-4.1123231 6.62918587 -10.00281909 10.83146525 -17 14 C-17 13.34 -17 12.68 -17 12 C-11.58823529 8 -11.58823529 8 -9 8 C-8.67 7.34 -8.34 6.68 -8 6 C-3.5 3 -3.5 3 -1 3 C-0.67 2.01 -0.34 1.02 0 0 Z " fill="#4C4A8F" transform="translate(769,405)"/>
<path d="M0 0 C-0.33 0.99 -0.66 1.98 -1 3 C-3.328125 3.9140625 -3.328125 3.9140625 -6.25 4.625 C-7.20390625 4.86476563 -8.1578125 5.10453125 -9.140625 5.3515625 C-11.75364882 5.94413347 -14.36950453 6.49118153 -17 7 C-17.33 6.34 -17.66 5.68 -18 5 C-15.37605694 4.16320723 -12.75095616 3.33043058 -10.125 2.5 C-9.00544922 2.14228516 -9.00544922 2.14228516 -7.86328125 1.77734375 C-2.2265625 0 -2.2265625 0 0 0 Z " fill="#484B8B" transform="translate(739,359)"/>
<path d="M0 0 C0.99 0.33 1.98 0.66 3 1 C2.835 1.86625 2.67 2.7325 2.5 3.625 C2.02781452 6.81225199 1.92344882 9.78485027 2 13 C1.01 13 0.02 13 -1 13 C-0.67 8.71 -0.34 4.42 0 0 Z " fill="#5ACCD1" transform="translate(181,459)"/>
<path d="M0 0 C0 0.66 0 1.32 0 2 C-5.97954915 3.86860911 -11.69302574 5 -18 5 C-18 4.34 -18 3.68 -18 3 C-15.56318413 2.49645133 -13.12564561 1.99703244 -10.6875 1.5 C-9.99720703 1.35691406 -9.30691406 1.21382813 -8.59570312 1.06640625 C-5.67475227 0.47374956 -2.98891878 0 0 0 Z " fill="#515095" transform="translate(699,370)"/>
<path d="M0 0 C1.32 0.33 2.64 0.66 4 1 C2.06891122 2.50894379 0.13093994 4.00711534 -1.8125 5.5 C-2.35970703 5.92925781 -2.90691406 6.35851562 -3.47070312 6.80078125 C-7.66015625 10 -7.66015625 10 -11 10 C-8.17589976 7.07130346 -5.27847819 4.41572077 -2 2 C-1.34 2 -0.68 2 0 2 C0 1.34 0 0.68 0 0 Z " fill="#8D8BD1" transform="translate(396,522)"/>
<path d="M0 0 C-3.63 3.63 -7.26 7.26 -11 11 C-11 6.64719758 -8.77956117 4.22302392 -6 1 C-2.62650602 -1.31325301 -2.62650602 -1.31325301 0 0 Z " fill="#869DD7" transform="translate(384,535)"/>
<path d="M0 0 C-1.92636339 2.60625635 -2.99765595 2.99954922 -6.25 3.625 C-7.4875 3.74875 -8.725 3.8725 -10 4 C-11.9490625 4.2784375 -11.9490625 4.2784375 -13.9375 4.5625 C-14.948125 4.706875 -15.95875 4.85125 -17 5 C-16 3 -16 3 -13.671875 2.1484375 C-12.70765625 1.89320313 -11.7434375 1.63796875 -10.75 1.375 C-9.31914062 0.98441406 -9.31914062 0.98441406 -7.859375 0.5859375 C-5.14423365 0.02955608 -2.76079823 -0.11083497 0 0 Z " fill="#6585BB" transform="translate(462,404)"/>
<path d="M0 0 C-3.65172633 2.26849666 -7.0127118 2.3895951 -11.25 2.625 C-12.51328125 2.69976562 -13.7765625 2.77453125 -15.078125 2.8515625 C-16.04234375 2.90054687 -17.0065625 2.94953125 -18 3 C-18 2.67 -18 2.34 -18 2 C-12.12116651 -0.61281488 -6.29268272 -0.18328202 0 0 Z " fill="#8C66C4" transform="translate(569,468)"/>
<path d="M0 0 C0.33 0.99 0.66 1.98 1 3 C-0.65234375 5.48046875 -0.65234375 5.48046875 -2.9375 8.1875 C-3.68902344 9.08855469 -4.44054687 9.98960937 -5.21484375 10.91796875 C-5.80394531 11.60503906 -6.39304688 12.29210937 -7 13 C-7 9.16235973 -5.73464665 7.88513915 -3.5 4.8125 C-2.8503125 3.91144531 -2.200625 3.01039063 -1.53125 2.08203125 C-1.0259375 1.39496094 -0.520625 0.70789063 0 0 Z " fill="#5FE1D4" transform="translate(220,366)"/>
<path d="M0 0 C0.66 0.66 1.32 1.32 2 2 C0.35 6.29 -1.3 10.58 -3 15 C-4 11 -4 11 -4 9 C-3.34 9 -2.68 9 -2 9 C-1.34 6.03 -0.68 3.06 0 0 Z " fill="#56A4B4" transform="translate(337,601)"/>
<path d="M0 0 C-3.41016497 2.86453858 -6.90694544 4.34703566 -11 6 C-11 5.01 -11 4.02 -11 3 C-9.73581754 2.30034557 -8.46334598 1.61565237 -7.1875 0.9375 C-6.47980469 0.55464844 -5.77210938 0.17179687 -5.04296875 -0.22265625 C-3 -1 -3 -1 0 0 Z " fill="#9376C9" transform="translate(431,504)"/>
<path d="M0 0 C-1.93108963 1.03290841 -3.870118 2.05098672 -5.8125 3.0625 C-6.89144531 3.63097656 -7.97039062 4.19945312 -9.08203125 4.78515625 C-12 6 -12 6 -15 5 C-9.25 2 -9.25 2 -7 2 C-7 1.34 -7 0.68 -7 0 C-2.25 -1.125 -2.25 -1.125 0 0 Z " fill="#4EC7AE" transform="translate(384,376)"/>
<path d="M0 0 C2.64465038 3.1254959 3.84414715 6.08788267 5 10 C4.01 10.495 4.01 10.495 3 11 C2.30034557 9.73581754 1.61565237 8.46334598 0.9375 7.1875 C0.55464844 6.47980469 0.17179688 5.77210938 -0.22265625 5.04296875 C-1 3 -1 3 0 0 Z " fill="#55BDC6" transform="translate(207,606)"/>
<path d="M0 0 C0.66 0 1.32 0 2 0 C2 4.29 2 8.58 2 13 C-1.32393895 8.56808139 -1.39296854 7.30507531 -1 2 C-0.67 1.34 -0.34 0.68 0 0 Z " fill="#5ACDD5" transform="translate(180,499)"/>
<path d="M0 0 C-3.00617269 3.00617269 -5.82381598 2.59585316 -10 3 C-10 2.01 -10 1.02 -10 0 C-6.30458414 -0.95024979 -3.69541586 -0.95024979 0 0 Z " fill="#8664B9" transform="translate(527,475)"/>
<path d="M0 0 C0 0.66 0 1.32 0 2 C-1.76913824 2.22226864 -3.54044371 2.42733873 -5.3125 2.625 C-6.29863281 2.74101562 -7.28476562 2.85703125 -8.30078125 2.9765625 C-11 3 -11 3 -14 1 C-9.27685687 0.22887459 -4.78478822 -0.09764874 0 0 Z " fill="#3A8E80" transform="translate(575,235)"/>
<path d="M0 0 C1 3 1 3 -0.25 6.625 C-2 10 -2 10 -5 11 C-3.77472971 6.94718288 -2.30119506 3.55639236 0 0 Z " fill="#60E1D9" transform="translate(205,390)"/>
<path d="M0 0 C-1 3 -1 3 -2.99609375 4.203125 C-3.80175781 4.54859375 -4.60742188 4.8940625 -5.4375 5.25 C-6.24058594 5.60578125 -7.04367187 5.9615625 -7.87109375 6.328125 C-10 7 -10 7 -12 6 C-10.37829621 4.99466333 -8.75252763 3.99588093 -7.125 3 C-5.76761719 2.1646875 -5.76761719 2.1646875 -4.3828125 1.3125 C-2 0 -2 0 0 0 Z " fill="#51CEB6" transform="translate(308,293)"/>
<path d="M0 0 C0.66 0.33 1.32 0.66 2 1 C1.56179109 5.55737263 1.14958831 8.57653445 -2 12 C-1.85831863 10.56208484 -1.71148957 9.1246763 -1.5625 7.6875 C-1.48128906 6.88699219 -1.40007812 6.08648438 -1.31640625 5.26171875 C-1 3 -1 3 0 0 Z " fill="#56ABB8" transform="translate(288,556)"/>
<path d="M0 0 C0.66 0.33 1.32 0.66 2 1 C-0.64960955 4.63094642 -3.01824456 6.89851796 -7 9 C-5.44499019 5.18315774 -2.96404505 2.80804268 0 0 Z " fill="#19162D" transform="translate(287,440)"/>
<path d="M0 0 C0.66 0.33 1.32 0.66 2 1 C2.125 4.375 2.125 4.375 2 8 C1.34 8.66 0.68 9.32 0 10 C-0.19412181 8.52168779 -0.38012131 7.04230684 -0.5625 5.5625 C-0.66691406 4.73878906 -0.77132812 3.91507813 -0.87890625 3.06640625 C-0.91886719 2.38449219 -0.95882812 1.70257812 -1 1 C-0.67 0.67 -0.34 0.34 0 0 Z " fill="#5BCDD6" transform="translate(183,529)"/>
<path d="M0 0 C-3.00617269 3.00617269 -5.82381598 2.59585316 -10 3 C-6.81859267 -0.48439851 -4.56758339 -1.41752588 0 0 Z " fill="#4BC2A8" transform="translate(354,275)"/>
<path d="M0 0 C0.66 0.33 1.32 0.66 2 1 C1.67 3.31 1.34 5.62 1 8 C0.01 8.33 -0.98 8.66 -2 9 C-1.125 1.125 -1.125 1.125 0 0 Z " fill="#5ACDD1" transform="translate(229,548)"/>
<path d="M0 0 C2.87839003 5.75678007 2.94902205 6.80898879 1 13 C0.67 13 0.34 13 0 13 C0 8.71 0 4.42 0 0 Z " fill="#65EBEE" transform="translate(180,472)"/>
<path d="M0 0 C2.05596957 3.70074522 3.36675691 7.06142774 2.5625 11.3125 C2.376875 11.869375 2.19125 12.42625 2 13 C0.54815522 8.46298506 -0.23509196 4.81938524 0 0 Z " fill="#66E7ED" transform="translate(184,537)"/>
<path d="M0 0 C0.66 0.66 1.32 1.32 2 2 C0.35 3.65 -1.3 5.3 -3 7 C-3 3 -3 3 -1.5 1.25 C-1.005 0.8375 -0.51 0.425 0 0 Z " fill="#8EA9C6" transform="translate(483,704)"/>
<path d="M0 0 C0.99 0.33 1.98 0.66 3 1 C1.02 2.98 -0.96 4.96 -3 7 C-3.66 6.67 -4.32 6.34 -5 6 C-3.35 4.02 -1.7 2.04 0 0 Z " fill="#56D7C2" transform="translate(302,422)"/>
<path d="M0 0 C1.25541557 3.76624671 0.37061958 5.37188934 -1 9 C-3 6 -3 6 -2.75 3.375 C-2.5025 2.59125 -2.255 1.8075 -2 1 C-1.34 0.67 -0.68 0.34 0 0 Z " fill="#5BCFCF" transform="translate(193,419)"/>
<path d="M0 0 C0 0.66 0 1.32 0 2 C-6.625 3.25 -6.625 3.25 -10 1 C-6.56484998 0.37542727 -3.50935186 0 0 0 Z " fill="#347773" transform="translate(647,226)"/>
</svg>
